<?xml version="1.0" encoding="UTF-8" standalone="no"?>
<svg xmlns="http://www.w3.org/2000/svg" width="366.15604" height="372.79999">
  <path d="M169.04291 282.5c-2.7 0-6.7-.9-10.7-5.4-10.8-12-20.8-23.2-50.2-23.2-7.5 0-16.100001.8-25.600001 2.3-42.3 6.7-44.4 6.7-45.1 6.7-.3 0-.6 0-.9-.1-3.9-.1-21-1.8-25.9-27-.1-.2-.2-.5-.2-.7v-1h-.1c-3.3000004-30 18.3-34.3 18.5-34.4v.2c.1 0 .2-.1.3-.1v-.2h.5c5.3-1.3 17.2-3 43.6-6.5 50.100001-6.8 58.100001-23.8 66.600001-41.7 2.7-5.7 7.1-8.9 12.2-8.9 6 0 11.6 4.6 12.5 10.2l16.9 116c.5 3.2-.7 6.7-3 9.4-2.5 2.8-5.9 4.4-9.4 4.4zm-61-35.6c32.6 0 44.7 13.5 55.4 25.4 1.9 2.1 3.8 3.2 5.6 3.2 1.5 0 2.9-.7 4-2 1-1.2 1.5-2.6 1.4-3.8l-17.1-115.9c-.3-1.9-2.7-4.1-5.5-4.1-2.9 0-4.7 2.6-5.7 4.7-8.5 18.1-18.1 38.5-72.100001 45.8-31.5 4.3-40.5 5.7-43.2 6.2-.3.2-.6.3-1 .3-.6.1-15.3 3.3-12.8 26.6v.3c0 .1 0 .2.1.3 3.7 20.3 15.7 21.9 19.3 21.9.4-.1.8 0 1.2.1 2-.2 10.3-1.3 43.5-6.6 10-1.6 19.000001-2.4 26.900001-2.4z"/>
  <path d="M96.942909 254.6c-1.7 0-3.2-1.3-3.5-3l-8.4-57c-.3-1.9 1-3.7 3-4 1.9-.2 3.7 1.1 4 3l8.400001 57c.3 1.9-1.000001 3.7-3.000001 4h-.5zm-63.5-30.4c-1.7 0-3.2-1.3-3.5-3-.3-1.9 1-3.7 3-4l25.7-3.8c1.9-.2 3.7 1.1 4 3 .3 1.9-1 3.7-3 4l-25.7 3.8h-.5zm2.5 17.1c-1.7 0-3.2-1.3-3.5-3-.3-1.9 1-3.7 3-4l25.7-3.8c1.9-.2 3.7 1.1 4 3 .3 1.9-1 3.7-3 4l-25.7 3.8h-.5zm58.1 67.7c-6.7 0-10.5-4.2-10.9-4.6l-36.8-44.2c-.8-1-1-2.3-.6-3.5.5-1.2 1.5-2 2.8-2.2l36-5c1.2-.2 2.5.3 3.3 1.3l31.600001 40.1c.6.8.9 1.8.7 2.8-.3 1.7-.3 1.7-14.8 11.6-3.9 2.4-7.600001 3.7-11.300001 3.7zm-5.6-9.3s2 2.2 5.5 2.2c2.2 0 4.7-.9 7.200001-2.6 5.2-3.6 8.4-5.8 10.3-7.1l-28.100001-35.6-27.7 3.9zm133.300001-44.3c-.9 0-1.8-.3-2.4-1-1.4-1.3-1.5-3.6-.1-5 12.3-12.9 17.8-30.6 15.1-48.7-2.6-17.9-13.4-33.8-28.9-42.5-1.7-1-2.3-3.1-1.4-4.8 1-1.7 3.1-2.3 4.8-1.4 17.4 9.7 29.5 27.5 32.4 47.6 3 20.2-3.2 40.1-17 54.6-.7.9-1.6 1.2-2.5 1.2z"/>
  <path d="M197.44291 239c-.8 0-1.7-.3-2.3-.9-1.5-1.3-1.6-3.5-.3-5 7.9-9.1 11.5-19.7 10-29.7-1.5-10.1-8-19.2-18.3-25.7-1.7-1-2.2-3.2-1.1-4.9 1-1.7 3.2-2.2 4.9-1.1 12.1 7.5 19.7 18.4 21.5 30.6 1.8 12.1-2.4 24.7-11.7 35.4-.8.9-1.8 1.3-2.7 1.3zm125.8-136.8c-2.4.7-5.9.1-5.9.1 4.7-1.5 6.1-4.4 6.1-4.4-5.4 1.2-7.2.2-7.2.2-1.2-2.4-3.4-4.3-6.1-5.2-5.6-1.8-11.5 1.3-13.3 6.8-.2.6-.3 1.2-.4 1.8-15.2-6.4-16.4-16.5-16.4-16.5-7.4 6.4-1.6 13.9-1.6 13.9-2.7-.7-3.6-2.6-3.6-2.6-3.1 7.9 4.4 12.4 4.4 12.4-3.2-.2-4.3-1.4-4.3-1.4.1 7.6 6.7 9.8 6.7 9.8-8.1 3.3-15.6-.5-15.6-.5l-.1-.1c3.5 4.2 8.2 7.5 13.7 9.3 15.5 5 32-3.5 37-19 .1-.3.2-.6.3-.8.1-.2.1-.4.1-.6 4.1-.8 6.2-3.2 6.2-3.2z"/>
  <path d="M321.54291 168.6c-.8 0-1.6-.1-2.3-.4l-79.7-25.6c-1.9-.6-3.5-1.9-4.4-3.8-.9-1.8-1.1-3.9-.5-5.8l25.6-79.7c1.3-3.9 5.6-6.2 9.6-4.9l79.7 25.6c1.9.6 3.5 2 4.4 3.8.9 1.8 1.1 3.9.5 5.8l-25.6 79.7c-1.1 3.2-4 5.3-7.3 5.3zm-54-113.4-.7.3-25.6 79.7.3.7 79.9 25.6c.2 0 .4-.1.5-.4l25.6-79.7c.1-.2-.1-.6-.3-.7zM76.542909 113.5c-4 0-7.4-3.1-7.6-7.2l-4.7-83.6c-.2-4.2 3-7.8 7.1-8L154.94291 10c4.4 0 7.8 3.1 8 7.2l4.7 83.6c.2 4.2-3 7.8-7.1 8zm78.900001-96.4-83.600001 4.7c-.3 0-.5.3-.5.6l4.7 83.6c0 .3.3.5.5.5v3.5-3.5l83.600001-4.7c.3 0 .5-.3.5-.6l-4.7-83.6c0-.3-.2-.5-.5-.5z"/>
  <path d="m144.84291 39.9-.5-9.4s-3.6.2-8.3.5c-4.7.3-13.3 4.8-12.5 19 0 .7.1 1.4.1 2.1l-8.1.5.6 9.9 8.1-.5c.8 13.6 1.6 28.9 1.6 28.9l11.5-.6s-.9-16.4-1.6-28.9l7.5-.4-.6-9.9-7.5.4c-.1-1.7 0-.6-.1-1.3-.5-7.4 2.8-9.9 9.8-10.3zm170.5 322.9c-1 0-2.1-.2-3-.6l-76.9-33.2c-3.8-1.7-5.6-6.1-4-10l33.2-76.9c1.6-3.7 6.2-5.6 10-4l76.9 33.2c1.9.8 3.3 2.3 4.1 4.2.7 1.9.7 4-.1 5.8l-33.2 76.9c-1.2 2.8-3.9 4.6-7 4.6zm-43.4-118.2-.7.3-33.2 76.8c-.1.3 0 .6.3.7l77.1 33.3c.2 0 .4-.1.5-.3l33.2-76.9c.1-.2 0-.6-.3-.7z"/>
  <path d="m315.34291 289.2-30.4-13.2c-4.6-2-9.9.1-11.9 4.7l-6.9 15.9c-2 4.6.1 9.9 4.7 11.9l30.4 13.2c4.6 2 9.9-.1 11.9-4.7l6.9-15.9c2-4.6-.1-9.9-4.7-11.9zm-31 14.5 6.3-14.6 10.7 13.2z"/>
</svg>